<?xml version="1.0" encoding="UTF-8" standalone="no"?>
<!-- Created with Inkscape (http://www.inkscape.org/) -->

<svg
   xmlns:dc="http://purl.org/dc/elements/1.1/"
   xmlns:cc="http://creativecommons.org/ns#"
   xmlns:rdf="http://www.w3.org/1999/02/22-rdf-syntax-ns#"
   xmlns:svg="http://www.w3.org/2000/svg"
   xmlns="http://www.w3.org/2000/svg"
   xmlns:sodipodi="http://sodipodi.sourceforge.net/DTD/sodipodi-0.dtd"
   xmlns:inkscape="http://www.inkscape.org/namespaces/inkscape"
   width="23.550274"
   height="15.769289"
   viewBox="0 0 23.550275 15.769289"
   id="svg2"
   version="1.1"
   inkscape:version="0.91 r13725"
   sodipodi:docname="favicon.svg"
   inkscape:export-filename="C:\Users\USER\Documents\WebProjects\CopyCodes\main\theapp\public\images\favicon.png"
   inkscape:export-xdpi="193.00534"
   inkscape:export-ydpi="193.00534">
  <defs
     id="defs4" />
  <sodipodi:namedview
     id="base"
     pagecolor="#ffffff"
     bordercolor="#666666"
     borderopacity="1.0"
     inkscape:pageopacity="0.0"
     inkscape:pageshadow="2"
     inkscape:zoom="9.9550436"
     inkscape:cx="18.382452"
     inkscape:cy="6.5938642"
     inkscape:document-units="px"
     inkscape:current-layer="layer1"
     showgrid="false"
     fit-margin-top="0"
     fit-margin-left="0"
     fit-margin-right="0"
     fit-margin-bottom="0"
     inkscape:window-width="1302"
     inkscape:window-height="746"
     inkscape:window-x="-8"
     inkscape:window-y="-8"
     inkscape:window-maximized="1"
     units="px" />
  <metadata
     id="metadata7">
    <rdf:RDF>
      <cc:Work
         rdf:about="">
        <dc:format>image/svg+xml</dc:format>
        <dc:type
           rdf:resource="http://purl.org/dc/dcmitype/StillImage" />
        <dc:title></dc:title>
      </cc:Work>
    </rdf:RDF>
  </metadata>
  <g
     inkscape:label="Layer 1"
     inkscape:groupmode="layer"
     id="layer1"
     transform="translate(-113.76087,-426.51861)">
    <rect
       style="opacity:1;fill:#c60deb;fill-opacity:1;fill-rule:evenodd;stroke:none;stroke-width:5;stroke-miterlimit:4;stroke-dasharray:none;stroke-opacity:1"
       id="rect8068"
       width="14.168284"
       height="13.98925"
       x="123.14286"
       y="426.63361"
       inkscape:export-xdpi="664.97998"
       inkscape:export-ydpi="664.97998" />
    <g
       id="g8094"
       transform="matrix(0.02688292,0,0,0.03188168,121.13092,414.25907)"
       inkscape:export-xdpi="664.97998"
       inkscape:export-ydpi="664.97998"
       style="fill:#ff00ff;fill-opacity:1;stroke:#ffffff;stroke-width:34.13187027;stroke-miterlimit:4;stroke-dasharray:none;stroke-opacity:1">
      <path
         d="m 145.18637,471.58 a 8.4283056,8.8359337 0 0 1 6.28709,-10.60662 8.4283056,8.8359337 0 0 1 10.1255,6.57731 8.4283056,8.8359337 0 0 1 -6.26067,10.62378 8.4283056,8.8359337 0 0 1 -10.14183,-6.54959"
         sodipodi:open="true"
         sodipodi:end="2.9076487"
         sodipodi:start="2.9128673"
         sodipodi:ry="8.8359337"
         sodipodi:rx="8.4283056"
         sodipodi:cy="469.57657"
         sodipodi:cx="153.39517"
         sodipodi:type="arc"
         id="path8070"
         style="opacity:1;fill:#ff00ff;fill-opacity:1;fill-rule:evenodd;stroke:#ffffff;stroke-width:34.13187027;stroke-miterlimit:4;stroke-dasharray:none;stroke-opacity:1" />
      <path
         inkscape:connector-curvature="0"
         id="path8072"
         d="m 170.07103,470.74227 343.8749,0 0,1.12378"
         style="fill:#ff00ff;fill-opacity:1;fill-rule:evenodd;stroke:#ffffff;stroke-width:34.13187027;stroke-linecap:butt;stroke-linejoin:miter;stroke-miterlimit:4;stroke-dasharray:none;stroke-opacity:1" />
    </g>
    <g
       id="g8110"
       transform="matrix(0.02688292,0,0,0.03188168,121.13092,417.33989)"
       inkscape:export-xdpi="664.97998"
       inkscape:export-ydpi="664.97998"
       style="fill:#ff00ff;fill-opacity:1;stroke:#ffffff;stroke-width:34.13187027;stroke-miterlimit:4;stroke-dasharray:none;stroke-opacity:1">
      <path
         style="opacity:1;fill:#ff00ff;fill-opacity:1;fill-rule:evenodd;stroke:#ffffff;stroke-width:34.13187027;stroke-miterlimit:4;stroke-dasharray:none;stroke-opacity:1"
         id="path8112"
         sodipodi:type="arc"
         sodipodi:cx="153.39517"
         sodipodi:cy="469.57657"
         sodipodi:rx="8.4283056"
         sodipodi:ry="8.8359337"
         sodipodi:start="2.9128673"
         sodipodi:end="2.9076487"
         sodipodi:open="true"
         d="m 145.18637,471.58 a 8.4283056,8.8359337 0 0 1 6.28709,-10.60662 8.4283056,8.8359337 0 0 1 10.1255,6.57731 8.4283056,8.8359337 0 0 1 -6.26067,10.62378 8.4283056,8.8359337 0 0 1 -10.14183,-6.54959" />
      <path
         style="fill:#ff00ff;fill-opacity:1;fill-rule:evenodd;stroke:#ffffff;stroke-width:34.13187027;stroke-linecap:butt;stroke-linejoin:miter;stroke-miterlimit:4;stroke-dasharray:none;stroke-opacity:1"
         d="m 170.07103,470.74227 343.8749,0 0,1.12378"
         id="path8114"
         inkscape:connector-curvature="0" />
    </g>
    <g
       style="fill:#ff00ff;fill-opacity:1;stroke:#ffffff;stroke-width:34.13187027;stroke-miterlimit:4;stroke-dasharray:none;stroke-opacity:1"
       inkscape:export-ydpi="664.97998"
       inkscape:export-xdpi="664.97998"
       transform="matrix(0.02688292,0,0,0.03188168,121.08443,419.94274)"
       id="g8210">
      <path
         style="opacity:1;fill:#ff00ff;fill-opacity:1;fill-rule:evenodd;stroke:#ffffff;stroke-width:34.13187027;stroke-miterlimit:4;stroke-dasharray:none;stroke-opacity:1"
         id="path8212"
         sodipodi:type="arc"
         sodipodi:cx="153.39517"
         sodipodi:cy="469.57657"
         sodipodi:rx="8.4283056"
         sodipodi:ry="8.8359337"
         sodipodi:start="2.9128673"
         sodipodi:end="2.9076487"
         sodipodi:open="true"
         d="m 145.18637,471.58 a 8.4283056,8.8359337 0 0 1 6.28709,-10.60662 8.4283056,8.8359337 0 0 1 10.1255,6.57731 8.4283056,8.8359337 0 0 1 -6.26067,10.62378 8.4283056,8.8359337 0 0 1 -10.14183,-6.54959" />
      <path
         style="fill:#ff00ff;fill-opacity:1;fill-rule:evenodd;stroke:#ffffff;stroke-width:34.13187027;stroke-linecap:butt;stroke-linejoin:miter;stroke-miterlimit:4;stroke-dasharray:none;stroke-opacity:1"
         d="m 170.07103,470.74227 343.8749,0 0,1.12378"
         id="path8214"
         inkscape:connector-curvature="0" />
    </g>
    <g
       style="fill:#ff00ff;fill-opacity:1;stroke:#ffffff;stroke-width:34.13187027;stroke-miterlimit:4;stroke-dasharray:none;stroke-opacity:1"
       inkscape:export-ydpi="664.97998"
       inkscape:export-xdpi="664.97998"
       transform="matrix(0.02688292,0,0,0.03188168,121.08443,422.84767)"
       id="g8216">
      <path
         d="m 145.18637,471.58 a 8.4283056,8.8359337 0 0 1 6.28709,-10.60662 8.4283056,8.8359337 0 0 1 10.1255,6.57731 8.4283056,8.8359337 0 0 1 -6.26067,10.62378 8.4283056,8.8359337 0 0 1 -10.14183,-6.54959"
         sodipodi:open="true"
         sodipodi:end="2.9076487"
         sodipodi:start="2.9128673"
         sodipodi:ry="8.8359337"
         sodipodi:rx="8.4283056"
         sodipodi:cy="469.57657"
         sodipodi:cx="153.39517"
         sodipodi:type="arc"
         id="path8218"
         style="opacity:1;fill:#ff00ff;fill-opacity:1;fill-rule:evenodd;stroke:#ffffff;stroke-width:34.13187027;stroke-miterlimit:4;stroke-dasharray:none;stroke-opacity:1" />
      <path
         inkscape:connector-curvature="0"
         id="path8220"
         d="m 170.07103,470.74227 343.8749,0 0,1.12378"
         style="fill:#ff00ff;fill-opacity:1;fill-rule:evenodd;stroke:#ffffff;stroke-width:34.13187027;stroke-linecap:butt;stroke-linejoin:miter;stroke-miterlimit:4;stroke-dasharray:none;stroke-opacity:1" />
    </g>
    <path
       inkscape:connector-curvature="0"
       style="fill:#e34f26"
       d="m 115.02365,440.68633 -1.26278,-14.16772 13.89053,0 -1.26277,14.16772 -5.69789,1.60157"
       id="path6" />
    <path
       inkscape:connector-curvature="0"
       style="fill:#ef652a"
       d="m 120.72154,441.05592 4.58911,-1.26277 1.07798,-12.13496 -5.66709,0"
       id="path8" />
    <path
       inkscape:connector-curvature="0"
       style="fill:#ebebeb"
       d="m 120.72154,432.92488 -2.30996,0 -0.15399,-1.78636 2.46395,0 0,-1.72476 -0.0308,0 -4.34272,0 0.0308,0.46199 0.43119,4.8047 3.91153,0 z m 0,4.52752 -0.0308,0 -1.94037,-0.52359 -0.12319,-1.38598 -0.92398,0 -0.80079,0 0.2156,2.74115 3.57273,0.98558 0.0308,0 z"
       id="path10" />
    <path
       inkscape:connector-curvature="0"
       style="fill:#ffffff"
       d="m 120.69074,432.92488 0,1.75557 2.15595,0 -0.21559,2.24836 -1.94036,0.52359 0,1.81716 3.57273,-0.98558 0.0308,-0.308 0.40039,-4.5891 0.0616,-0.462 -0.49279,0 z m 0,-3.51112 0,1.07797 0,0.64679 0,0 4.21951,0 0,0 0,0 0.0308,-0.36959 0.0924,-0.89318 0.0308,-0.46199 z"
       id="path12" />
  </g>
</svg>
