<?xml version="1.0" encoding="UTF-8" standalone="no"?>
<!-- Created with Inkscape (http://www.inkscape.org/) -->

<svg
   xmlns:dc="http://purl.org/dc/elements/1.1/"
   xmlns:cc="http://creativecommons.org/ns#"
   xmlns:rdf="http://www.w3.org/1999/02/22-rdf-syntax-ns#"
   xmlns:svg="http://www.w3.org/2000/svg"
   xmlns="http://www.w3.org/2000/svg"
   xmlns:sodipodi="http://sodipodi.sourceforge.net/DTD/sodipodi-0.dtd"
   xmlns:inkscape="http://www.inkscape.org/namespaces/inkscape"
   width="20"
   height="20"
   viewBox="0 0 20.000001 20"
   id="svg2"
   version="1.1"
   inkscape:version="0.91 r13725"
   sodipodi:docname="favicon.svg"
   inkscape:export-filename="C:\Users\USER\Documents\WebProjects\CopyCodes\main\theapp\public\images\favicon.png"
   inkscape:export-xdpi="193.00534"
   inkscape:export-ydpi="193.00534">
  <defs
     id="defs4" />
  <sodipodi:namedview
     id="base"
     pagecolor="#ffffff"
     bordercolor="#666666"
     borderopacity="1.0"
     inkscape:pageopacity="0.0"
     inkscape:pageshadow="2"
     inkscape:zoom="9.9550436"
     inkscape:cx="-3.8675761"
     inkscape:cy="6.5938642"
     inkscape:document-units="px"
     inkscape:current-layer="layer1"
     showgrid="false"
     fit-margin-top="0"
     fit-margin-left="0"
     fit-margin-right="0"
     fit-margin-bottom="0"
     inkscape:window-width="1302"
     inkscape:window-height="746"
     inkscape:window-x="-8"
     inkscape:window-y="-8"
     inkscape:window-maximized="1"
     units="px" />
  <metadata
     id="metadata7">
    <rdf:RDF>
      <cc:Work
         rdf:about="">
        <dc:format>image/svg+xml</dc:format>
        <dc:type
           rdf:resource="http://purl.org/dc/dcmitype/StillImage" />
        <dc:title></dc:title>
      </cc:Work>
    </rdf:RDF>
  </metadata>
  <g
     inkscape:label="Layer 1"
     inkscape:groupmode="layer"
     id="layer1"
     transform="translate(-113.76087,-422.2879)">
    <rect
       style="opacity:1;fill:#c60deb;fill-opacity:1;fill-rule:evenodd;stroke:none;stroke-width:5;stroke-miterlimit:4;stroke-dasharray:none;stroke-opacity:1"
       id="rect8068"
       width="13.3019"
       height="14.02494"
       x="120.40202"
       y="424.82578"
       inkscape:export-xdpi="664.97998"
       inkscape:export-ydpi="664.97998" />
    <g
       id="g8094"
       transform="matrix(0.02523904,0,0,0.03196302,118.51311,412.41967)"
       inkscape:export-xdpi="664.97998"
       inkscape:export-ydpi="664.97998"
       style="fill:#ff00ff;fill-opacity:1;stroke:#ffffff;stroke-width:34.13187027;stroke-miterlimit:4;stroke-dasharray:none;stroke-opacity:1">
      <path
         d="m 145.18637,471.58 a 8.4283056,8.8359337 0 0 1 6.28709,-10.60662 8.4283056,8.8359337 0 0 1 10.1255,6.57731 8.4283056,8.8359337 0 0 1 -6.26067,10.62378 8.4283056,8.8359337 0 0 1 -10.14183,-6.54959"
         sodipodi:open="true"
         sodipodi:end="2.9076487"
         sodipodi:start="2.9128673"
         sodipodi:ry="8.8359337"
         sodipodi:rx="8.4283056"
         sodipodi:cy="469.57657"
         sodipodi:cx="153.39517"
         sodipodi:type="arc"
         id="path8070"
         style="opacity:1;fill:#ff00ff;fill-opacity:1;fill-rule:evenodd;stroke:#ffffff;stroke-width:34.13187027;stroke-miterlimit:4;stroke-dasharray:none;stroke-opacity:1" />
      <path
         inkscape:connector-curvature="0"
         id="path8072"
         d="m 170.07103,470.74227 343.8749,0 0,1.12378"
         style="fill:#ff00ff;fill-opacity:1;fill-rule:evenodd;stroke:#ffffff;stroke-width:34.13187027;stroke-linecap:butt;stroke-linejoin:miter;stroke-miterlimit:4;stroke-dasharray:none;stroke-opacity:1" />
    </g>
    <g
       id="g8110"
       transform="matrix(0.02523904,0,0,0.03196302,118.51311,415.50835)"
       inkscape:export-xdpi="664.97998"
       inkscape:export-ydpi="664.97998"
       style="fill:#ff00ff;fill-opacity:1;stroke:#ffffff;stroke-width:34.13187027;stroke-miterlimit:4;stroke-dasharray:none;stroke-opacity:1">
      <path
         style="opacity:1;fill:#ff00ff;fill-opacity:1;fill-rule:evenodd;stroke:#ffffff;stroke-width:34.13187027;stroke-miterlimit:4;stroke-dasharray:none;stroke-opacity:1"
         id="path8112"
         sodipodi:type="arc"
         sodipodi:cx="153.39517"
         sodipodi:cy="469.57657"
         sodipodi:rx="8.4283056"
         sodipodi:ry="8.8359337"
         sodipodi:start="2.9128673"
         sodipodi:end="2.9076487"
         sodipodi:open="true"
         d="m 145.18637,471.58 a 8.4283056,8.8359337 0 0 1 6.28709,-10.60662 8.4283056,8.8359337 0 0 1 10.1255,6.57731 8.4283056,8.8359337 0 0 1 -6.26067,10.62378 8.4283056,8.8359337 0 0 1 -10.14183,-6.54959" />
      <path
         style="fill:#ff00ff;fill-opacity:1;fill-rule:evenodd;stroke:#ffffff;stroke-width:34.13187027;stroke-linecap:butt;stroke-linejoin:miter;stroke-miterlimit:4;stroke-dasharray:none;stroke-opacity:1"
         d="m 170.07103,470.74227 343.8749,0 0,1.12378"
         id="path8114"
         inkscape:connector-curvature="0" />
    </g>
    <g
       style="fill:#ff00ff;fill-opacity:1;stroke:#ffffff;stroke-width:34.13187027;stroke-miterlimit:4;stroke-dasharray:none;stroke-opacity:1"
       inkscape:export-ydpi="664.97998"
       inkscape:export-xdpi="664.97998"
       transform="matrix(0.02523904,0,0,0.03196302,118.46946,418.11784)"
       id="g8210">
      <path
         style="opacity:1;fill:#ff00ff;fill-opacity:1;fill-rule:evenodd;stroke:#ffffff;stroke-width:34.13187027;stroke-miterlimit:4;stroke-dasharray:none;stroke-opacity:1"
         id="path8212"
         sodipodi:type="arc"
         sodipodi:cx="153.39517"
         sodipodi:cy="469.57657"
         sodipodi:rx="8.4283056"
         sodipodi:ry="8.8359337"
         sodipodi:start="2.9128673"
         sodipodi:end="2.9076487"
         sodipodi:open="true"
         d="m 145.18637,471.58 a 8.4283056,8.8359337 0 0 1 6.28709,-10.60662 8.4283056,8.8359337 0 0 1 10.1255,6.57731 8.4283056,8.8359337 0 0 1 -6.26067,10.62378 8.4283056,8.8359337 0 0 1 -10.14183,-6.54959" />
      <path
         style="fill:#ff00ff;fill-opacity:1;fill-rule:evenodd;stroke:#ffffff;stroke-width:34.13187027;stroke-linecap:butt;stroke-linejoin:miter;stroke-miterlimit:4;stroke-dasharray:none;stroke-opacity:1"
         d="m 170.07103,470.74227 343.8749,0 0,1.12378"
         id="path8214"
         inkscape:connector-curvature="0" />
    </g>
    <g
       style="fill:#ff00ff;fill-opacity:1;stroke:#ffffff;stroke-width:34.13187027;stroke-miterlimit:4;stroke-dasharray:none;stroke-opacity:1"
       inkscape:export-ydpi="664.97998"
       inkscape:export-xdpi="664.97998"
       transform="matrix(0.02523904,0,0,0.03196302,118.46946,421.03018)"
       id="g8216">
      <path
         d="m 145.18637,471.58 a 8.4283056,8.8359337 0 0 1 6.28709,-10.60662 8.4283056,8.8359337 0 0 1 10.1255,6.57731 8.4283056,8.8359337 0 0 1 -6.26067,10.62378 8.4283056,8.8359337 0 0 1 -10.14183,-6.54959"
         sodipodi:open="true"
         sodipodi:end="2.9076487"
         sodipodi:start="2.9128673"
         sodipodi:ry="8.8359337"
         sodipodi:rx="8.4283056"
         sodipodi:cy="469.57657"
         sodipodi:cx="153.39517"
         sodipodi:type="arc"
         id="path8218"
         style="opacity:1;fill:#ff00ff;fill-opacity:1;fill-rule:evenodd;stroke:#ffffff;stroke-width:34.13187027;stroke-miterlimit:4;stroke-dasharray:none;stroke-opacity:1" />
      <path
         inkscape:connector-curvature="0"
         id="path8220"
         d="m 170.07103,470.74227 343.8749,0 0,1.12378"
         style="fill:#ff00ff;fill-opacity:1;fill-rule:evenodd;stroke:#ffffff;stroke-width:34.13187027;stroke-linecap:butt;stroke-linejoin:miter;stroke-miterlimit:4;stroke-dasharray:none;stroke-opacity:1" />
    </g>
    <path
       inkscape:connector-curvature="0"
       style="fill:#e34f26"
       d="m 115.02972,438.91436 -1.18557,-14.20388 13.04114,0 -1.18556,14.20388 -5.34946,1.60565"
       id="path6" />
    <path
       inkscape:connector-curvature="0"
       style="fill:#ef652a"
       d="m 120.37918,439.28488 4.30849,-1.26599 1.01206,-12.16592 -5.32055,0"
       id="path8" />
    <path
       inkscape:connector-curvature="0"
       style="fill:#ebebeb"
       d="m 120.37918,431.1331 -2.16871,0 -0.14457,-1.79092 2.31328,0 0,-1.72916 -0.0289,0 -4.07716,0 0.0289,0.46318 0.40483,4.81695 3.67234,0 z m 0,4.53908 -0.0289,0 -1.82173,-0.52494 -0.11564,-1.38952 -0.86749,0 -0.75182,0 0.20242,2.74816 3.35426,0.98808 0.0289,0 z"
       id="path10" />
    <path
       inkscape:connector-curvature="0"
       style="fill:#ffffff"
       d="m 120.35027,431.1331 0,1.76005 2.02411,0 -0.2024,2.25409 -1.82171,0.52494 0,1.82178 3.35425,-0.98808 0.0289,-0.30879 0.37591,-4.60082 0.0578,-0.46317 -0.46267,0 z m 0,-3.52008 0,1.08072 0,0.64844 0,0 3.96148,0 0,0 0,0 0.0289,-0.37053 0.0867,-0.89545 0.0289,-0.46318 z"
       id="path12" />
  </g>
</svg>
